<?xml version="1.0" standalone="no"?>
<!DOCTYPE svg PUBLIC "-//W3C//DTD SVG 20010904//EN"
 "http://www.w3.org/TR/2001/REC-SVG-20010904/DTD/svg10.dtd">
<svg version="1.0" xmlns="http://www.w3.org/2000/svg"
 width="90.000000pt" height="122.000000pt" viewBox="0 0 90.000000 122.000000"
 preserveAspectRatio="xMidYMid meet">
<metadata>
Created by potrace 1.11, written by Peter Selinger 2001-2013
</metadata>
<g transform="translate(0.000000,122.000000) scale(0.100000,-0.100000)"
fill="#000000" stroke="none">
<path d="M494 1185 c-47 -25 -187 -145 -167 -145 5 0 39 27 76 60 37 33 76 64
87 70 23 12 23 12 87 -85 25 -38 72 -105 105 -149 47 -64 58 -85 53 -105 -13
-58 -39 -137 -48 -149 -6 -7 -72 -59 -146 -115 -75 -56 -180 -139 -235 -185
-54 -45 -104 -81 -110 -79 -6 2 -38 42 -71 88 -90 128 -94 133 -100 127 -3 -2
17 -34 43 -69 27 -35 70 -100 97 -144 26 -44 52 -85 57 -92 11 -14 101 43 163
104 22 21 81 70 130 107 112 86 145 116 145 133 0 8 -5 11 -11 8 -6 -4 -5 2 2
13 15 23 27 20 38 -11 8 -22 23 19 72 203 12 46 24 79 26 73 4 -12 -45 -196
-72 -273 -10 -30 -10 -39 1 -55 11 -14 14 -15 18 -4 2 8 12 37 20 64 13 38 25
55 54 73 20 13 48 32 61 43 l25 20 -32 58 c-30 55 -31 58 -17 96 21 58 19 64
-22 81 -35 15 -37 15 -53 -6 -16 -21 -17 -20 -81 77 -36 54 -79 119 -95 145
-16 26 -34 47 -40 48 -5 0 -32 -11 -60 -25z"/>
<path d="M402 991 c-68 -42 -112 -79 -112 -94 0 -16 169 -267 180 -267 13 0
179 123 179 133 1 8 -132 231 -151 254 -16 20 -27 17 -96 -26z m143 -74 c26
-45 56 -93 66 -106 11 -13 19 -30 19 -37 0 -7 -36 -40 -80 -74 l-80 -61 -80
121 c-44 67 -80 127 -80 134 0 30 156 132 176 115 6 -5 33 -46 59 -92z"/>
</g>
</svg>
